<?xml version="1.0" encoding="UTF-8"?>
<!-- <svg id="Layer_2" xmlns="http://www.w3.org/2000/svg"
    viewBox="0 0 1038.282 1038.282">
    <g id="Layer_5">
        <path
            d="m519.141.5C232.704.5.5,232.703.5,519.141s232.204,518.641,518.641,518.641,518.641-232.204,518.641-518.641S805.579.5,519.141.5Zm260.37,909.197c-1.155,3.936-4.2,4.2-18.898,12.599-3.302,1.887-6.299,6.299-23.097,14.698-12.134,6.067-11.715,3.708-31.496,14.698-18.898,10.499-21.865,6.767-39.895,12.599-14.133,4.571-23.555,5.48-65.093,8.399-40.282,2.831-60.422,4.247-62.993,4.2-41.938-.771-31.496,2.1-69.292,0-20.438-1.135-43.348-6.124-60.893-8.399-9.702-1.258-22.566-5.038-48.295-12.599-14.216-4.177-30.05-9.052-48.295-16.798-12.025-5.105-18.768-8.77-25.197-14.698-3.991-3.68-14.698-8.399-12.599-12.599,0,0,1.391-8.695,4.2-12.599,3.926-5.457,12.854-4.656,25.197-4.2,12.59.465,25.2-.261,37.796,0,21.105.437,18.226-.419,37.796,0,18.868.404,35.025,1.484,44.095,2.1,15.803,1.073,20.788,1.755,33.596,2.1,9.354.252,15.016.113,25.197,0,21.458-.237,29.98.01,46.195,0,51.662-.033,61.585-2.605,104.988-2.1,41.448.483,42.799,2.949,77.691,2.1,19.365-.472,31.496-2.1,31.496-2.1h10.854c8.011,0,15.873,2.177,22.742,6.299,0,.002,5.32,2.481,4.2,6.299Zm111.287-98.689c-1.51,4.728-3.536,6.596-12.599,16.798-9.318,10.49-10.602,12.374-14.698,14.698-5.125,2.909-9.762,3.733-12.599,4.2-30.718,5.055-44.095,4.2-44.095,4.2-36.328-2.324-72.807-.838-109.188-2.1-25.892-.898-50.858-.599-100.789,0-61.646.739-59.418,2.111-100.789,2.1-60.468-.017-60.219-2.947-113.387-2.1-42.067.671-45.538.519-81.891,2.1q-48.295,2.1-65.093,0c-10.901-1.363-31.566,2.717-46.195-2.1-8.022-2.641-11.763-7.123-18.898-12.599-6.839-5.248-8.887-7.594-14.698-18.898-3.101-6.032-6.16-11.983-4.2-18.898,1.653-5.829,6.631-11.489,12.599-12.599,3.752-.698,6.168.724,10.499,2.1,5.908,1.877,9.515,1.806,23.097,2.1,27.999.605,55.985,2.117,83.99,2.1,25.197-.016,50.394.003,75.591,0h14.698s37.078-3.202,100.789,0c10.475.526,19.08,1.303,31.496,0,15.333-1.61,40.845-2.1,44.095-2.1,60.893,0,62.093-5.469,128.085-2.1,55.619,2.839,64.189-.648,115.487,2.1,41.889,2.244,54.62,5.557,67.192,2.1.686-.189,10.176-2.819,20.998,0,7.742,2.017,9.854,5.18,10.499,6.299,2.588,4.496.91,9.749,0,12.599Zm69.292-109.188c-1.307,5.558-4.371,10.704-10.499,20.998-5.122,8.603-7.739,12.941-10.499,14.698-6.155,3.919-11.989,2.434-23.097,2.1-12.037-.363-13.362,1.134-29.397,2.1-38.536,2.321-86.09,0-86.09,0-53.131-2.593-106.388,0-159.582,0h-146.983c-51.094,0-102.191-.482-153.283,0-68.518.647-70.39,1.658-90.29,0-25.197-2.1-2.417,3.244-69.292-2.1-5.684-.454-41.102,5.346-58.793,2.1-11.262-2.067-18.628-6.788-20.998-8.399-11.648-7.92-16.636-18.254-18.898-23.097-3.872-8.29-7.163-15.339-4.2-20.998,2.797-5.339,9.843-6.918,23.097-8.399,29.47-3.292,44.095-2.1,44.095-2.1,20.279,1.654,40.599,2.75,60.893,4.2,27.332,1.952,26.472-.922,81.891-2.1,42.577-.905,41.523.825,90.29,0,35.212-.595,38.243-1.509,73.492-2.1,16.292-.273,33.416-.382,75.591,0,43.363.393,84.361,1.043,136.484,2.1,99.919,2.025,94.009,2.569,111.287,2.1,59.472-1.614,78.489-2.387,104.988-2.1,8.342.09,28.458,2.533,48.295,2.1,2.751-.06,7.726-2.454,14.698-2.1,8.939.455,18.898,4.2,18.898,4.2,0,.004-.427,9.689-2.1,16.798Zm-299.617-206.087c-.233.167-.455.278-.649.311-11.04,1.84-12.036,2.085-12.036,2.085-4.788-.057-14.102,2.683-33.589,13.921-2.362,1.238-4.725,2.476-7.087,3.714-5.546,3.081-10.961,6.399-16.141,10.062-40.663,38.748-29.89,35.563-50.147,60.758l-8.105,10.348c-2.081,2.658-4.867,4.612-7.986,5.681-3.001,1.029-6.325-.152-8.101-2.781l-23.828-35.264c-3.417-5.057-7.461-9.662-12.035-13.704l-.593-.524c-21.158-25.361-48.576-40.428-78.61-50.089l-.013-.006-9.575-2.736c-4.683-1.338-6.969-6.939-4.159-10.916.354-.502.739-.872,1.135-1.046l20.998-8.399,42.341-31.756c10.962-8.222,21.541-16.943,31.702-26.137,13.933-10.926,24.725-23.546,32.714-37.678,3.389-5.996,11.344-8.064,18.151-7.02,2.401.368,4.112,1.133,5.276,1.802,3.348,1.925,4.565,4.439,10.499,12.599,3.961,5.447,7.352,9.735,9.552,12.454,5.915,7.747,11.83,15.494,17.745,23.242,22.963,30.331,35.217,35.356,65.461,53.169,3.89,2.291,7.612,4.871,11.136,7.693l5.916,4.738c1.751,1.402,1.849,4.172.027,5.481Zm69.902,57.389c11.34,5.914,18.071,13.623,26.038,20.612,23.14,20.3,36.938,49.723,52.494,60.893h-247.772c17.146-18.389,31.496-50.394,65.093-73.492,4.828-3.319,20.121-13.248,25.197-14.698,29.397-8.399,54.947-5.834,78.95,6.684Zm-322.522-2.485c12.049,4.057,17.043,10.028,25.197,16.798,20.224,16.79,37.796,48.295,50.394,67.192h-254.071c26.393-17.73,50.394-54.594,73.492-73.492,4.534-3.71,22.344-12.872,27.297-14.698,27.191-10.026,54.129-3.734,77.691,4.2Zm583.734,37.796c-.164,1.234-2.406,10.546-4.2,23.097-2.1,14.698-5.267,17.797-6.299,18.898-4.403,4.695-13.489,4.2-31.496,4.2-6.299,0,4.2,0-46.195,2.1-12.73.53-19.821,4.826-25.197,2.1-5.189-2.631-5.788-9.768-10.499-16.798-5.794-8.647-10.214-12.108-16.798-16.798-6.192-4.411-6.866-5.937-37.796-39.895-26.185-28.749-32.474-35.089-39.895-41.995-10.507-9.777-18.921-16.628-29.397-23.097-8.772-5.418-9.069-4.433-18.898-10.499-11.395-7.033-22.018-13.588-31.496-25.197-6.705-8.212-5.531-10.003-12.599-18.898-8.807-11.084-17.828-10.701-23.097-20.998-.916-1.789-3.003-7.132,2.1-8.399,10.156-2.521,25.786-.209,35.696,0,26.993.57,25.197-2.1,37.796-2.1,34.589,0,49.063,1.33,65.093,4.2,17.482,3.13,27.281,5.075,39.895,0,4.074-1.639,9.015-1.093,18.898-8.399,11.382-8.415,10.24-6.85,20.998-14.698,10.737-7.833,13.149-7.17,18.898-12.599,11.246-10.62,12.052-20.774-8.399-20.998-6.585-.072-30.004,3.643-8.399,0-19.341,3.261-26.335,3.572-29.397,4.2-20.733,4.252-21.424,2.118-56.694,2.1-24.133-.012-19.204-.766-73.492,0-11.021.155-29.526.319-52.494,0-48.132-.668-38.528-2.38-65.093-2.1-.484.005-13.678-2.462-31.496-2.1-23.162.471-23.693.892-25.197-6.299-1.48-7.073,14.23-14.524,16.798-31.496.368-2.432,1.137-8.042-2.1-12.599-5.023-7.072-13.937-4.359-16.798-4.2-9.863.549-17.1,5.514-20.998,8.399-27.193,20.132-30.477,38.055-50.394,46.195-8.069,3.297-14.451,2.699-25.197,2.1-30.749-1.714-61.611,1.045-92.39,0-73.149-2.485-72.908,4.204-123.886,2.1-38.054-1.571-56.87-5.439-60.893-6.299-20.948-4.48-33.234-4.699-37.796,2.1-2.805,4.181-1.975,6.452,0,10.499,2.211,4.531,4.993,7.431,6.299,8.399,25.007,18.531,22.257,29.648,29.397,31.496,7.608,1.97,14.409-1.567,25.197,0,23.994,3.485,38.915,2.254,54.594,4.2,62.428,7.747,145.408-13.461,151.183,2.1,2.021,5.446-9.909,7.829-25.197,25.197-13.857,15.742-21.664,20.447-33.596,29.397-16.798,12.599-21.515,14.215-41.995,16.798-10.35,1.306-14.156,8.842-27.297,23.097-29.765,32.29-31.84,35.712-50.394,56.694-26.974,30.502-25.722,27.142-37.796,39.895-8.669,9.158-8.399,16.798-18.898,23.097-5.711,3.426-9.24.968-25.197,0-10.789-.655-6.638.259-39.895,0-27.32-.213-29.278-.823-31.496-2.1-10.977-6.316-14.049-20.74-16.798-44.095-3.827-32.515-5.74-48.772-4.2-79.791,1.238-24.919,2.909-55.374,12.599-94.489,7.902-31.897,17.563-55.132,25.197-73.492,7.214-17.35,14.466-34.79,27.297-56.694,16.243-27.729,32.096-46.68,44.095-60.893,5.506-6.522,21.104-24.673,44.095-46.195,17.466-16.349,41.55-38.657,77.691-60.893,28.826-17.735,52.66-27.634,67.192-33.596,18.127-7.437,48.503-19.704,90.29-27.297,8.837-1.606,29.645-5.085,56.694-6.299,28.764-1.291,50.638.605,67.192,2.1,14.777,1.335,33.887,3.122,58.793,8.399,29.377,6.224,51.157,13.984,58.793,16.798,28.098,10.353,47.33,21.027,73.492,35.696,31.929,17.903,48.023,26.625,67.192,41.995,19.727,15.817,34.489,31.45,50.394,48.295,14.935,15.816,22.402,23.724,31.496,35.696,12.803,16.854,23.408,36.662,44.095,75.591,14.3,26.909,17.546,34.549,18.898,37.796,8.459,20.32,12.739,36.832,16.798,52.494,5.86,22.608,8.793,40.079,10.499,50.394,2.594,15.684,5.131,31.309,6.299,52.494,1.212,21.977.329,38.647,0,44.095-.681,11.271-1.854,20.112-4.2,37.796Z"
            fill="none" stroke="#000" stroke-miterlimit="10" />
    </g>
</svg> -->


<svg xmlns="http://www.w3.org/2000/svg" viewBox="-1.5 -1.5 1041 1041">
    <path
        d="m991.586 588.435c2.346-17.684 3.519-26.525 4.2-37.796.329-5.448 1.212-22.118 0-44.095-1.168-21.185-3.705-36.81-6.299-52.494-1.706-10.315-4.639-27.786-10.499-50.394-4.059-15.662-8.339-32.174-16.798-52.494-1.352-3.247-4.598-10.887-18.898-37.796-20.687-38.929-31.292-58.737-44.095-75.591-9.094-11.972-16.561-19.88-31.496-35.696-15.905-16.845-30.667-32.478-50.394-48.295-19.169-15.37-35.263-24.092-67.192-41.995-26.162-14.669-45.394-25.343-73.492-35.696-7.636-2.814-29.416-10.574-58.793-16.798-24.906-5.277-44.016-7.064-58.793-8.399-16.554-1.495-38.428-3.391-67.192-2.1-27.049 1.214-47.857 4.693-56.694 6.299-41.787 7.593-72.163 19.86-90.29 27.297-14.532 5.962-38.366 15.861-67.192 33.596-36.141 22.236-60.225 44.544-77.691 60.893-22.991 21.522-38.589 39.673-44.095 46.195-11.999 14.213-27.852 33.164-44.095 60.893-12.831 21.904-20.083 39.344-27.297 56.694-7.634 18.36-17.295 41.595-25.197 73.492-9.69 39.115-11.361 69.57-12.599 94.489-1.54 31.019.373 47.276 4.2 79.791 2.749 23.355 5.821 37.779 16.798 44.095 2.218 1.277 4.176 1.887 31.496 2.1 33.257.259 29.106-.655 39.895 0 15.957.968 19.486 3.426 25.197 0 10.499-6.299 10.229-13.939 18.898-23.097 12.074-12.753 10.822-9.393 37.796-39.895 18.554-20.982 20.629-24.404 50.394-56.694 13.141-14.255 16.947-21.791 27.297-23.097 20.48-2.583 25.197-4.199 41.995-16.798 11.932-8.95 19.739-13.655 33.596-29.397 15.288-17.368 27.218-19.751 25.197-25.197-5.775-15.561-88.755 5.647-151.183-2.1-15.679-1.946-30.6-.715-54.594-4.2-10.788-1.567-17.589 1.97-25.197 0-7.14-1.848-4.39-12.965-29.397-31.496-1.306-.968-4.088-3.868-6.299-8.399-1.975-4.047-2.805-6.318 0-10.499 4.562-6.799 16.848-6.58 37.796-2.1 4.023.86 22.839 4.728 60.893 6.299 50.978 2.104 50.737-4.585 123.886-2.1 30.779 1.045 61.641-1.714 92.39 0 10.746.599 17.128 1.197 25.197-2.1 19.917-8.14 23.201-26.063 50.394-46.195 3.898-2.885 11.135-7.85 20.998-8.399 2.861-.159 11.775-2.872 16.798 4.2 3.237 4.557 2.468 10.167 2.1 12.599-2.568 16.972-18.278 24.423-16.798 31.496 1.504 7.191 2.035 6.77 25.197 6.299 17.818-.362 31.012 2.105 31.496 2.1 26.565-.28 16.961 1.432 65.093 2.1 22.968.319 41.473.155 52.494 0 54.288-.766 49.359-.012 73.492 0 35.27.018 35.961 2.152 56.694-2.1 3.062-.628 10.056-.939 29.397-4.2-21.605 3.643 1.814-.072 8.399 0 20.451.224 19.645 10.378 8.399 20.998-5.749 5.429-8.161 4.766-18.898 12.599-10.758 7.848-9.616 6.283-20.998 14.698-9.883 7.306-14.824 6.76-18.898 8.399-12.614 5.075-22.413 3.13-39.895 0-16.03-2.87-30.504-4.2-65.093-4.2-12.599 0-10.803 2.67-37.796 2.1-9.91-.209-25.54-2.521-35.696 0-5.103 1.267-3.016 6.61-2.1 8.399 5.269 10.297 14.29 9.914 23.097 20.998 7.068 8.895 5.894 10.686 12.599 18.898 9.478 11.609 20.101 18.164 31.496 25.197 9.829 6.066 10.126 5.081 18.898 10.499 10.476 6.469 18.89 13.32 29.397 23.097 7.421 6.906 13.71 13.246 39.895 41.995 30.93 33.958 31.604 35.484 37.796 39.895 6.584 4.69 11.004 8.151 16.798 16.798 4.711 7.03 5.31 14.167 10.499 16.798 5.376 2.726 12.467-1.57 25.197-2.1 50.395-2.1 39.896-2.1 46.195-2.1 18.007 0 27.093.495 31.496-4.2 1.032-1.101 4.199-4.2 6.299-18.898 1.794-12.551 4.036-21.863 4.2-23.097zm-583.733-37.798c-23.562-7.934-50.5-14.226-77.691-4.2-4.953 1.826-22.763 10.988-27.297 14.698-23.098 18.898-47.099 55.762-73.492 73.492h254.071c-12.598-18.897-30.17-50.402-50.394-67.192-8.154-6.77-13.148-12.741-25.197-16.798zm322.522 2.484c-24.003-12.518-49.553-15.083-78.95-6.684-5.076 1.45-20.369 11.379-25.197 14.698-33.597 23.098-47.947 55.103-65.093 73.492h247.772c-15.556-11.17-29.354-40.593-52.494-60.893-7.967-6.989-14.698-14.698-26.038-20.612zm-69.903-57.386c1.822-1.309 1.724-4.079-.027-5.481l-5.916-4.738c-3.524-2.822-7.246-5.402-11.136-7.693-30.244-17.813-42.498-22.838-65.461-53.169-5.915-7.748-11.83-15.495-17.745-23.242-2.2-2.719-5.591-7.007-9.552-12.454-5.934-8.16-7.151-10.674-10.499-12.599-1.164-.669-2.875-1.434-5.276-1.802-6.807-1.044-14.762 1.024-18.151 7.02-7.989 14.132-18.781 26.752-32.714 37.678-10.161 9.194-20.74 17.915-31.702 26.137l-42.341 31.756-20.998 8.399c-.396.174-.781.544-1.135 1.046-2.81 3.977-.524 9.578 4.159 10.916l9.575 2.736.013.006c30.034 9.661 57.452 24.728 78.61 50.089l.593.524c4.574 4.042 8.618 8.647 12.035 13.704l23.828 35.264c1.776 2.629 5.1 3.81 8.101 2.781 3.119-1.069 5.905-3.023 7.986-5.681l8.105-10.348c20.257-25.195 9.484-22.01 50.147-60.758 5.18-3.663 10.595-6.981 16.141-10.062 2.362-1.238 4.725-2.476 7.087-3.714 19.487-11.238 28.801-13.978 33.589-13.921 0 0 .996-.245 12.036-2.085.194-.033.416-.144.649-.311zm299.616 206.086c1.673-7.109 2.1-16.794 2.1-16.798 0 0-9.959-3.745-18.898-4.2-6.972-.354-11.947 2.04-14.698 2.1-19.837.433-39.953-2.01-48.295-2.1-26.499-.287-45.516.486-104.988 2.1-17.278.469-11.368-.075-111.287-2.1-52.123-1.057-93.121-1.707-136.484-2.1-42.175-.382-59.299-.273-75.591 0-35.249.591-38.28 1.505-73.492 2.1-48.767.825-47.713-.905-90.29 0-55.419 1.178-54.559 4.052-81.891 2.1-20.294-1.45-40.614-2.546-60.893-4.2 0 0-14.625-1.192-44.095 2.1-13.254 1.481-20.3 3.06-23.097 8.399-2.963 5.659.328 12.708 4.2 20.998 2.262 4.843 7.25 15.177 18.898 23.097 2.37 1.611 9.736 6.332 20.998 8.399 17.691 3.246 53.109-2.554 58.793-2.1 66.875 5.344 44.095 0 69.292 2.1 19.9 1.658 21.772.647 90.29 0 51.092-.482 102.189 0 153.283 0h146.983c53.194 0 106.451-2.593 159.582 0 0 0 47.554 2.321 86.09 0 16.035-.966 17.36-2.463 29.397-2.1 11.108.334 16.942 1.819 23.097-2.1 2.76-1.757 5.377-6.095 10.499-14.698 6.128-10.294 9.192-15.44 10.499-20.998zm-69.294 109.187c.91-2.85 2.588-8.103 0-12.599-.645-1.119-2.757-4.282-10.499-6.299-10.822-2.819-20.312-.189-20.998 0-12.572 3.457-25.303.144-67.192-2.1-51.298-2.748-59.868.739-115.487-2.1-65.992-3.369-67.192 2.1-128.085 2.1-3.25 0-28.762.49-44.095 2.1-12.416 1.303-21.021.526-31.496 0-63.711-3.202-100.789 0-100.789 0h-14.698c-25.197.003-50.394-.016-75.591 0-28.005.017-55.991-1.495-83.99-2.1-13.582-.294-17.189-.223-23.097-2.1-4.331-1.376-6.747-2.798-10.499-2.1-5.968 1.11-10.946 6.77-12.599 12.599-1.96 6.915 1.099 12.866 4.2 18.898 5.811 11.304 7.859 13.65 14.698 18.898 7.135 5.476 10.876 9.958 18.898 12.599 14.629 4.817 35.294.737 46.195 2.1q16.798 2.1 65.093 0c36.353-1.581 39.824-1.429 81.891-2.1 53.168-.847 52.919 2.083 113.387 2.1 41.371.011 39.143-1.361 100.789-2.1 49.931-.599 74.897-.898 100.789 0 36.381 1.262 72.86-.224 109.188 2.1 0 0 13.377.855 44.095-4.2 2.837-.467 7.474-1.291 12.599-4.2 4.096-2.324 5.38-4.208 14.698-14.698 9.063-10.202 11.089-12.07 12.599-16.798zm-111.283 98.688c1.12-3.818-4.2-6.297-4.2-6.299-6.869-4.122-14.731-6.299-22.742-6.299h-10.854s-12.131 1.628-31.496 2.1c-34.892.849-36.243-1.617-77.691-2.1-43.403-.505-53.326 2.067-104.988 2.1-16.215.01-24.737-.237-46.195 0-10.181.113-15.843.252-25.197 0-12.808-.345-17.793-1.027-33.596-2.1-9.07-.616-25.227-1.696-44.095-2.1-19.57-.419-16.691.437-37.796 0-12.596-.261-25.206.465-37.796 0-12.343-.456-21.271-1.257-25.197 4.2-2.809 3.904-4.2 12.599-4.2 12.599-2.099 4.2 8.608 8.919 12.599 12.599 6.429 5.928 13.172 9.593 25.197 14.698 18.245 7.746 34.079 12.621 48.295 16.798 25.729 7.561 38.593 11.341 48.295 12.599 17.545 2.275 40.455 7.264 60.893 8.399 37.796 2.1 27.354-.771 69.292 0 2.571.047 22.711-1.369 62.993-4.2 41.538-2.919 50.96-3.828 65.093-8.399 18.03-5.832 20.997-2.1 39.895-12.599 19.781-10.99 19.362-8.631 31.496-14.698 16.798-8.399 19.795-12.811 23.097-14.698 14.698-8.399 17.743-8.663 18.898-12.599zm-260.37-909.196c286.438 0 518.641 232.204 518.641 518.641s-232.204 518.641-518.641 518.641-518.641-232.203-518.641-518.641c0-286.438 232.204-518.641 518.641-518.641z"
        stroke="#000000" stroke-width="2" fill="none" />
</svg>