<?xml version="1.0" encoding="utf-8"?>
<!-- Generator: Adobe Illustrator 19.1.0, SVG Export Plug-In . SVG Version: 6.00 Build 0)  -->
<svg version="1.1" id="Layer_1" xmlns="http://www.w3.org/2000/svg" xmlns:xlink="http://www.w3.org/1999/xlink" x="0px" y="0px"
	 width="1000px" height="1000px" viewBox="0 0 1000 1000" style="enable-background:new 0 0 1000 1000;" xml:space="preserve">
<style type="text/css">
	.st0{fill:#D9299B;}
	.st1{fill:#9ABF15;}
	.st2{fill:#F2B705;}
	.st3{fill:#3BA7BF;}
	.st4{fill:#D97904;}
</style>
<g>
	<polygon points="387.3,76.7 49.8,38.2 38.7,381 510,575.9 	"/>
	<polygon class="st0" points="59.8,58.3 49.8,365 207.1,230.3 	"/>
	<polygon class="st1" points="213,237.2 53.8,373.6 486.4,556.5 	"/>
	<polygon class="st2" points="220.8,230.6 494.7,550.4 380.3,94.1 	"/>
	<polygon class="st3" points="214.9,223.6 372.3,88.9 67.3,51.3 	"/>
	<path class="st4" d="M927,902l35.3-9.8l-24.5-30.5l-17,31.9c-17-23-35-45.2-58.3-62.3c-9.6-7.1-20-13.1-31.1-17.7l25.4-26.6
		l-36.6-13.7l1.8,36.8c-5.2-1.7-10.5-3-15.9-3.9c-18.4-3.1-37.2-1-55.3,2.8c-14.5,3-29.4,7.4-44.4,10.7l16.8-28.8l-38.8-4.8l10.4,36
		c-17.9,3.2-36,4.2-53.7-1c-13.7-4.1-26-11.4-37-20.5l33.1-15.6l-29.3-25.9l-11.5,34.7c-3.5-3.3-6.9-6.8-10.2-10.4
		c-15.7-17.3-29-37.7-35.1-60.5c-2-7.4-3.1-14.8-3.7-22.3l34.2,11.4l-3.3-39l-31.4,16.7c-0.3-14.5,0.9-29,1.1-43.5
		c0.2-12.1-0.4-24.4-4.8-35.9c-1.9-5-4.7-9.5-7.8-13.7l33.5-10.5l-25.4-29.7L528.1,588c-3.1-3.3-6.3-6.4-9.5-9.5
		c-4.7-4.5-12.6,2.1-7.8,6.7c3.3,3.1,6.6,6.3,9.7,9.6l-34.1,10.7l25.4,29.7l15.7-31.9c2.6,3.6,4.8,7.4,6.4,11.5
		c4,10.3,4.1,21.8,3.9,32.7c-0.3,14.3-1.4,28.7-1.1,43l-33.3-11.1l3.3,39l30.6-16.3c0.4,4.4,0.9,8.7,1.7,13.1
		c4,22.4,14.5,43.1,28.1,61.2c6.5,8.6,13.8,17,21.7,24.6L558,815.4l29.3,25.9l10.8-32.4c5.6,4.6,11.6,8.7,17.9,12.3
		c17.2,9.8,36.2,14.3,56,13.6c6.6-0.3,13.1-1,19.6-2l-16.3,28l38.8,4.8l-10.2-35.1c7.5-1.5,14.9-3.4,22.3-5.2
		c18-4.5,36.2-9.3,54.8-10.2c12.4-0.7,24.6,0.9,36.3,4.3l-23.3,24.4l36.6,13.7l-1.6-33.9c3.7,1.6,7.4,3.4,11,5.3
		c30.4,16.8,52.3,43,72.6,70.5l-33.4,9.3l24.5,30.5l16-30.1c9.9,13.7,19.6,27.4,30,40.4c4.1,5.2,11.9-1.5,7.8-6.7
		C946.8,929.7,937,915.8,927,902z"/>
</g>
</svg>
