<?xml version="1.0" encoding="UTF-8"?>
<svg id="Layer_1" data-name="Layer 1" xmlns="http://www.w3.org/2000/svg" viewBox="0 0 392.94 392.94">
  <defs>
    <style>
      .cls-1 {
        fill: #49b4e5;
      }

      .cls-1, .cls-2 {
        stroke-width: 0px;
      }

      .cls-2 {
        fill: #acebff;
        opacity: .5;
      }
    </style>
  </defs>
  <rect class="cls-1" width="392.94" height="392.94"/>
  <g>
    <path class="cls-2" d="m344.58,95.73c-13.1.09-26.24.02-39.3-1.17-6.49-.59-13.01-1.3-19.36-2.83-11.24-2.71-22.34-6.14-33.27-9.88-12.7-4.35-25.6-9.07-37.26-15.81-4.75-2.75-16.32-9.24-13.03-16.47,1.98-4.35,7.44-6.34,11.79-6.95,8.9-1.24,18.28.63,27.03,2.16,10.46,1.83,20.98,3.33,31.47,4.96,7.21,1.12,14.43,2.19,21.68,2.96,7.01.74,14.04,1.08,21.05,1.81,25.74,2.71,51.65,7.31,77.56,5.49v-10.6c-19.3,1.13-38.51,1.63-57.86.66-30.33-1.53-59.73-9.5-89.61-14.22-15.29-2.41-30.77-4-46.26-3.35-15.34.65-30.51,3.05-45.52,6.2-29.37,6.17-58.44,14.99-88.53,16.98-21.79,1.45-43.5-.15-65.17-2.3v9.65c9.46,3.97,20.15,4.51,30.29,4.09,11.77-.49,23.42-2.29,35.08-3.86,12.19-1.64,24.4-2.9,36.58-4.71,13.54-2.02,27.23-4.01,40.96-3.7,26.82.62,51.67,12.55,75.47,23.88,23.99,11.43,48.41,23.33,75.1,26.67,30.25,3.79,60.74,1.82,91.12,1.57,2.8-.02,5.58-.01,8.36.06v-11.05c-16.09-.82-32.29-.38-48.37-.27Z"/>
    <path class="cls-2" d="m65.95,130.09c6.31-2.54,13.96-5.55,18.47-10.9,1.63-1.94,2.77-4.52,1.46-6.96-1.56-2.89-4.68-4.95-7.73-6-8.25-2.84-17.66-2.06-26.2-1.32-8.24.71-16.58,2.23-24.87,2.11-8.9-.13-18.04-.93-26.81-2.42-.09-.02-.18-.03-.28-.05v39.48c4.35-.22,8.68-.58,12.99-1.07,18.02-2.04,36.1-6.09,52.96-12.88Z"/>
    <path class="cls-2" d="m275.9,150.27c5.12-3.76,12.14-4.58,18.28-5.13,8.23-.73,16.51-.64,24.76-1.11,24.98-1.43,49.31-7.5,74-11.13v-7.77c-13.15,1.05-26.25,2.66-39.28,4.69-12.65,1.98-25.2,4.74-37.93,6.09-32.67,3.48-65.37-.25-98.02-1.95-16.2-.84-32.67-1.52-48.83.24-14.95,1.63-29.57,5.23-43.83,9.92-13.78,4.53-27.25,9.92-40.83,15.02-13.35,5.01-26.82,10.03-40.87,12.68-14.23,2.68-28.79,3.85-43.35,3.83v13.29c.48.03.96.06,1.45.09,7.64.47,15.27,1.2,22.93,1.56,5.14.24,10.16.33,15.18-.92,6.42-1.6,12.74-3.58,19.13-5.31,7.27-1.97,14.73-4.02,22.28-4.61,3.79-.3,8.67-.58,10.41,3.5,2.84,6.63-3.72,13.54-8.13,17.6-8.97,8.27-19.77,14.6-30.42,20.44-13.12,7.19-26.67,13.57-40.39,19.51-4.12,1.78-8.26,3.51-12.42,5.22v17.19c20.15-2.1,38.64-12.43,54.67-24.34,18.13-13.47,34.16-29.53,49.84-45.72,6.83-7.05,13.59-14.18,20.59-21.06,8.47-8.32,17.96-15.17,28.93-19.86,10.88-4.64,22.48-7.38,34.24-8.49,11.62-1.1,24.23-1.58,35.62,1.42,20.9,5.51,36,21.62,50.61,36.54,7.39,7.55,14.83,15.17,23.55,21.2,8.32,5.75,17.33,10.48,26.64,14.41,20.77,8.77,43.1,14.22,65.53,16.42.9.09,1.81.17,2.71.25v-14.91c-2.82-.21-5.65-.41-8.49-.54-9.9-.45-19.85-.78-29.67-2.21-22.81-3.33-45.49-13.3-63.16-28.17-7.48-6.3-15.13-14.09-18.63-23.43-1.95-5.2-1.94-10.94,2.9-14.49Z"/>
    <path class="cls-2" d="m301.45,258.92c-11.39-3.84-21.65-9.28-31.96-15.38-10.75-6.36-21.82-12.26-33.4-16.98-22.61-9.22-47.17-13.86-71.62-12.03-39.1,2.94-71.32,27.2-102.76,48.26-15.48,10.37-31.38,20.53-48.78,27.41-4.25,1.68-8.57,3.13-12.94,4.33v16.84c5.74-2.26,11.41-4.71,17.13-6.87,12.56-4.74,24.76-10.54,36.01-17.9,21.26-13.92,38.59-35.42,63.67-42.94,12.75-3.82,26.06-3.02,38.94-.22,13.86,3.01,27.27,7.96,40.26,13.6,12.85,5.57,24.23,13.72,36.08,21.08,12.37,7.69,25.31,14.12,39.67,17.05,30.19,6.15,61.55,1.87,91.57-3.1,9.88-1.63,19.74-3.43,29.61-5.08v-25.15c-29.88,7.76-62.36,6.9-91.49-2.91Zm-2.6,22.95c-1.13,1.7-3.16,2.51-5.08,2.92-3.92.86-8.08.78-12.06.48-11.22-.85-21.99-4.74-32.07-9.57-11.02-5.28-21.43-11.68-31.78-18.15-4.45-2.78-8.85-5.94-13.56-8.26-3.67-1.81-7.37-3.59-10.89-5.69-4.76-2.84-13.67-8.24-11.09-15.06,2.77-7.33,13.24-6.62,19.37-5.55,1.49.26,2.97.58,4.45.93,2.65.12,5.29.57,7.87,1.2,9.71,2.38,18.9,6.73,27.77,11.26,7.76,3.96,15.48,8.03,23.2,12.07,5.27,2.76,10.27,6.11,15.08,9.6,5.39,3.92,10.84,8.12,15.17,13.21,2.1,2.46,5.92,7.14,3.62,10.58Z"/>
    <path class="cls-2" d="m337.73,324.59c8.36-.75,16.57,2.14,24.74,3.36,6.89,1.03,13.65,2.12,20.61,2.69,3.21.26,6.63-.19,9.86.21v-4.17c-11.58-.92-23.15-2-34.72-2.95-26.44-2.17-53.43-4.08-79.88-1.07-28.17,3.2-56.4,7.61-84.83,7.29-14.14-.16-28.27-1.45-42.15-4.2-12.45-2.47-24.66-5.76-36.94-8.95-12.7-3.3-25.66-6.42-38.82-6.97-6.37-.27-12.81-.02-19.06,1.32-6,1.29-11.77,3.58-17.38,6.04-12.95,5.69-25.71,12.65-39.16,16.48v6.78c1.36-.37,2.71-.75,4.07-1.12,25.62-7,53.39-13.39,79.1-3.33,22.51,8.81,44.61,20.44,68.83,23.77,27.67,3.8,55.07-4.73,81.8-10.83,13.5-3.08,27.09-5.93,40.88-7.4,14.66-1.57,29.18-1.23,43.82.32,24.84,2.63,49.44,7.63,74.44,8.56v-4.02c-7.11-.56-14.21-1.64-21.22-2.54-8.32-1.06-16.3-1.72-24.4-3.98-5.12-1.43-12.24-3.09-15.81-7.39-3.41-4.1,2.72-7.56,6.22-7.87Zm-140.81,24.83c-7.38,2.56-15.32,3.6-23.07,4.26-8.72.74-17.42.59-26.08-.86-10.26-1.72-21.46-4.51-29.7-11.2-2.62-2.12-5.92-5.09-6.28-8.68-.31-3.08,1.69-6.01,4.78-6.57,4.01-.72,8.24.23,12.15,1.12,5.67,1.3,11.43,1.99,17.18,2.88,6.78,1.05,13.56,2.14,20.34,3.19,1.38-.08,2.76-.15,4.14-.19,8.26-.24,16.74-.38,24.9,1.1,3.37.61,9.65,1.72,10.64,5.81,1.22,5.03-5.3,7.86-9,9.15Z"/>
    <path class="cls-2" d="m351.49,365.34c-10.24-.09-20.52.06-30.69,1.36-10.53,1.34-21.02,3.04-31.5,4.72-27.91,4.48-55.85,9.32-84.11,10.96-29.07,1.69-58.42.12-87.37-2.68-14.27-1.38-28.49-3.13-42.67-5.24-13.48-2.01-26.84-4.85-40.36-6.53-11.49-1.43-23.25-2.05-34.79-1.1v26.11h392.94v-27.43c-13.79.65-27.66-.05-41.45-.17Z"/>
  </g>
</svg>