<svg width="100%" height="100%" id="svg" viewBox="250 -25 940 413" xmlns="http://www.w3.org/2000/svg">
  <path d="M 0,683 C 0,683 0,136 0,136 C 207.5,118 415,100 655,100 C 895,100 1167.5,118 1440,136 C 1440,136 1440,683 1440,683 Z" stroke="none" stroke-width="0" fill="#157EFB" fill-opacity="1" class="path-0"></path>
  <path d="M 0,683 C 0,683 0,273 0,273 C 248,289.5 496,306 736,306 C 976,306 1208,289.5 1440,273 C 1440,273 1440,683 1440,683 Z" stroke="none" stroke-width="0" fill="#157EFB" fill-opacity="1" class="path-1"></path>
  <path d="M 0,683 C 0,683 0,409 0,409 C 290.5,418 581,427 821,427 C 1061,427 1250.5,418 1440,409 C 1440,409 1440,683 1440,683 Z" stroke="none" stroke-width="0" fill="#157EFB" fill-opacity="1" class="path-2"></path>
  <path d="M 0,683 C 0,683 0,546 0,546 C 273.5,523 547,500 787,500 C 1027,500 1233.5,523 1440,546 C 1440,546 1440,683 1440,683 Z" stroke="none" stroke-width="0" fill="#157EFB" fill-opacity="1" class="path-3"></path>
</svg>
